<?xml version="1.0" encoding="UTF-8" standalone="no"?>
<svg
   xmlns:dc="http://purl.org/dc/elements/1.1/"
   xmlns:cc="http://creativecommons.org/ns#"
   xmlns:rdf="http://www.w3.org/1999/02/22-rdf-syntax-ns#"
   xmlns:svg="http://www.w3.org/2000/svg"
   xmlns="http://www.w3.org/2000/svg"
   xmlns:sodipodi="http://sodipodi.sourceforge.net/DTD/sodipodi-0.dtd"
   xmlns:inkscape="http://www.inkscape.org/namespaces/inkscape"
   inkscape:export-ydpi="14.542012"
   inkscape:export-xdpi="14.542012"
   inkscape:export-filename="/Users/jishnu/git/video-speed/icons/icon-128.png"
   inkscape:version="1.0 (4035a4f, 2020-05-01)"
   height="845"
   width="845"
   sodipodi:docname="speed.svg"
   id="svg845"
   clip-rule="evenodd"
   fill-rule="evenodd"
   y="0px"
   x="0px"
   viewBox="0 0 845.00003 845.00004"
   style="image-rendering:optimizeQuality;shape-rendering:geometricPrecision;text-rendering:geometricPrecision"
   version="1.1"
   xml:space="preserve"><metadata
     id="metadata849"><rdf:RDF><cc:Work
         rdf:about=""><dc:format>image/svg+xml</dc:format><dc:type
           rdf:resource="http://purl.org/dc/dcmitype/StillImage" /><dc:title></dc:title></cc:Work></rdf:RDF></metadata><sodipodi:namedview
     inkscape:current-layer="svg845"
     inkscape:window-maximized="0"
     inkscape:window-y="23"
     inkscape:window-x="0"
     inkscape:cy="396.87188"
     inkscape:cx="335.53713"
     inkscape:zoom="0.83150261"
     showgrid="false"
     id="namedview847"
     inkscape:window-height="1040"
     inkscape:window-width="1656"
     inkscape:pageshadow="2"
     inkscape:pageopacity="0"
     guidetolerance="10"
     gridtolerance="10"
     objecttolerance="10"
     borderopacity="1"
     bordercolor="#666666"
     pagecolor="#ffffff" /><defs
     id="defs835"><style
       id="style833"
       type="text/css">
   
    .fil0 {fill:black}
   
  </style></defs><g
     inkscape:export-ydpi="18.408712"
     inkscape:export-xdpi="18.408712"
     transform="translate(-0.83,-0.825)"
     id="g839"><path
       id="path837"
       d="m 423.33,89.57 c 207.27,0 375.3,168.03 375.3,375.3 0,118.09 -54.51,223.39 -139.74,292.21 C 623.61,683.75 531.45,631.44 423.33,631.44 315.22,631.44 223.05,683.75 187.77,757.08 102.54,688.26 48.03,582.96 48.03,464.87 48.03,257.6 216.06,89.57 423.33,89.57 Z m 20.18,221.64 c 40.47,0 73.45,32.8 73.45,73.39 0,40.47 -32.98,73.45 -73.45,73.45 -40.47,0 -207.94,-73.45 -207.94,-73.45 0,0 167.47,-73.39 207.94,-73.39 z m -0.45,36.64 c 20.35,0 36.86,16.46 36.86,36.81 0,20.35 -16.51,36.81 -36.86,36.81 -20.35,0 -36.75,-16.46 -36.75,-36.81 0,-20.35 16.4,-36.81 36.75,-36.81 z m -89.97,147.18 h 152.26 v 42.95 H 353.09 Z m 70.24,-380.04 c 17.02,0 30.78,13.75 30.78,30.78 0,17.02 -13.76,30.77 -30.78,30.77 -17.02,0 -30.78,-13.75 -30.78,-30.77 0,-17.03 13.76,-30.78 30.78,-30.78 z m -174.97,46.9 c 14.77,-8.51 33.54,-3.5 42.05,11.22 8.51,14.76 3.5,33.53 -11.27,42.05 -14.71,8.51 -33.48,3.49 -42,-11.28 -8.51,-14.71 -3.49,-33.48 11.22,-41.99 z M 120.29,289.96 c 8.57,-14.77 27.34,-19.79 42.05,-11.33 14.77,8.57 19.79,27.34 11.28,42.1 -8.51,14.72 -27.29,19.73 -42,11.22 -14.77,-8.51 -19.78,-27.28 -11.33,-41.99 z M 73.45,464.93 c 0,-17.08 13.75,-30.84 30.72,-30.84 17.08,0 30.83,13.76 30.83,30.84 0,16.96 -13.75,30.72 -30.77,30.66 -17.03,0.06 -30.78,-13.7 -30.78,-30.66 z M 598.3,161.89 c -14.77,-8.51 -33.54,-3.5 -42.05,11.22 -8.51,14.76 -3.5,33.53 11.27,42.05 14.71,8.51 33.48,3.49 42,-11.28 8.51,-14.71 3.49,-33.48 -11.22,-41.99 z m 128.01,128.07 c -8.51,-14.77 -27.28,-19.79 -41.99,-11.28 -14.77,8.52 -19.79,27.29 -11.28,42.05 8.51,14.72 27.29,19.73 42.05,11.22 14.72,-8.51 19.73,-27.28 11.22,-41.99 z m 46.9,174.91 c 0,-17.02 -13.75,-30.78 -30.78,-30.78 -17.02,0 -30.77,13.76 -30.77,30.78 0,17.02 13.75,30.78 30.77,30.78 17.03,0 30.78,-13.76 30.78,-30.78 z"
       class="fil0" /></g></svg>
